HIERARCHY
ROOT Hips
{
	OFFSET 0.000000 83.214638 0.000000
	CHANNELS 6 Xposition Yposition Zposition Xrotation Yrotation Zrotation
	JOINT Pelvis
	{
		OFFSET 0.000000 0.000000 0.000000
		CHANNELS 3 Xrotation Yrotation Zrotation
		JOINT LeftUpLeg
		{
			OFFSET 8.479700 -4.795502 -0.379100
			CHANNELS 3 Xrotation Yrotation Zrotation
			JOINT LeftLeg
			{
				OFFSET 0.024144 -32.555107 0.112900
				CHANNELS 3 Xrotation Yrotation Zrotation
				JOINT LeftFoot
				{
					OFFSET -0.024144 -32.638630 -3.012600
					CHANNELS 3 Xrotation Yrotation Zrotation
					JOINT LeftToeBase
					{
						OFFSET 0.970200 -13.225400 11.864200
						CHANNELS 3 Xrotation Yrotation Zrotation
						End Site
						{
							OFFSET 0.000000 12.319262 0.000000
						}
					}
					JOINT LFootTongue
					{
						OFFSET 1.142400 -1.059800 6.665200
						CHANNELS 3 Xrotation Yrotation Zrotation
						End Site
						{
							OFFSET 0.000000 12.319262 0.000000
						}
					}
				}
				JOINT LeftPantLeg
				{
					OFFSET 0.918482 -16.533964 -2.284700
					CHANNELS 3 Xrotation Yrotation Zrotation
					End Site
					{
						OFFSET 0.350399 24.744368 0.000000
					}
				}
			}
		}
		JOINT RightUpLeg
		{
			OFFSET -8.479700 -4.795502 -0.379100
			CHANNELS 3 Xrotation Yrotation Zrotation
			JOINT RightLeg
			{
				OFFSET -0.023144 -32.555092 0.112900
				CHANNELS 3 Xrotation Yrotation Zrotation
				JOINT RightFoot
				{
					OFFSET 0.023144 -32.638641 -3.012700
					CHANNELS 3 Xrotation Yrotation Zrotation
					JOINT RightToeBase
					{
						OFFSET -0.970200 -13.225400 11.864200
						CHANNELS 3 Xrotation Yrotation Zrotation
						End Site
						{
							OFFSET 0.000000 12.319244 0.000000
						}
					}
					JOINT RFootTongue
					{
						OFFSET -1.142200 -1.059800 6.665200
						CHANNELS 3 Xrotation Yrotation Zrotation
						End Site
						{
							OFFSET 0.000000 12.319243 0.000000
						}
					}
				}
				JOINT RightPantLeg
				{
					OFFSET -0.919482 -16.533978 -2.284800
					CHANNELS 3 Xrotation Yrotation Zrotation
					End Site
					{
						OFFSET -0.350400 24.744419 0.000000
					}
				}
			}
		}
	}
	JOINT Spine
	{
		OFFSET 0.000000 7.722000 1.166200
		CHANNELS 3 Xrotation Yrotation Zrotation
		JOINT Spine1
		{
			OFFSET 0.000000 12.024101 0.248800
			CHANNELS 3 Xrotation Yrotation Zrotation
			JOINT Spine2
			{
				OFFSET 0.000000 11.502998 -0.491200
				CHANNELS 3 Xrotation Yrotation Zrotation
				JOINT Neck
				{
					OFFSET 0.000000 18.430702 -3.123100
					CHANNELS 3 Xrotation Yrotation Zrotation
					JOINT Head
					{
						OFFSET 0.000000 9.051102 1.034000
						CHANNELS 3 Xrotation Yrotation Zrotation
						JOINT HairB
						{
							OFFSET 0.208400 24.786102 24.822300
							CHANNELS 3 Xrotation Yrotation Zrotation
							End Site
							{
								OFFSET 0.000000 32.263779 0.000000
							}
						}
						JOINT HairA
						{
							OFFSET -7.081100 24.428299 23.196600
							CHANNELS 3 Xrotation Yrotation Zrotation
							End Site
							{
								OFFSET 0.000000 32.263779 0.000000
							}
						}
						JOINT Hat
						{
							OFFSET 16.728800 15.048294 -15.439601
							CHANNELS 3 Xrotation Yrotation Zrotation
							End Site
							{
								OFFSET 0.000000 32.263779 0.000000
							}
						}
					}
				}
				JOINT LeftShoulder
				{
					OFFSET 6.197800 13.665199 -4.064700
					CHANNELS 3 Xrotation Yrotation Zrotation
					JOINT LeftArm
					{
						OFFSET 7.778100 -0.187103 -1.709300
						CHANNELS 3 Xrotation Yrotation Zrotation
						JOINT LeftForeArm
						{
							OFFSET 22.049376 0.000000 0.000000
							CHANNELS 3 Xrotation Yrotation Zrotation
							JOINT LeftHand
							{
								OFFSET 23.009392 0.000000 0.000000
								CHANNELS 3 Xrotation Yrotation Zrotation
								JOINT LeftHandThumb1
								{
									OFFSET 3.507191 -2.063065 3.133727
									CHANNELS 3 Xrotation Yrotation Zrotation
									JOINT LeftHandThumb2
									{
										OFFSET 3.101337 -1.790558 1.790558
										CHANNELS 3 Xrotation Yrotation Zrotation
										JOINT LeftHandThumb3
										{
											OFFSET 3.058640 -1.765907 1.765906
											CHANNELS 3 Xrotation Yrotation Zrotation
											End Site
											{
												OFFSET -0.415260 3.926476 -0.049563
											}
										}
									}
								}
								JOINT LeftHandIndex1
								{
									OFFSET 11.334419 -0.901459 3.706815
									CHANNELS 3 Xrotation Yrotation Zrotation
									JOINT LeftHandIndex2
									{
										OFFSET 3.283112 0.000000 0.000000
										CHANNELS 3 Xrotation Yrotation Zrotation
										JOINT LeftHandIndex3
										{
											OFFSET 3.323853 0.000000 0.000000
											CHANNELS 3 Xrotation Yrotation Zrotation
											End Site
											{
												OFFSET -1.135597 3.097809 0.402452
											}
										}
									}
								}
								JOINT LeftHandMiddle1
								{
									OFFSET 11.335861 0.000000 0.000000
									CHANNELS 3 Xrotation Yrotation Zrotation
									JOINT LeftHandMiddle2
									{
										OFFSET 3.410492 0.000000 0.000000
										CHANNELS 3 Xrotation Yrotation Zrotation
										JOINT LeftHandMiddle3
										{
											OFFSET 3.312172 0.000000 0.000000
											CHANNELS 3 Xrotation Yrotation Zrotation
											End Site
											{
												OFFSET -1.150200 3.080154 0.400270
											}
										}
									}
								}
								JOINT LeftHandRing1
								{
									OFFSET 11.514786 -0.013176 -3.003090
									CHANNELS 3 Xrotation Yrotation Zrotation
									JOINT LeftHandRing2
									{
										OFFSET 3.053307 0.000000 0.000000
										CHANNELS 3 Xrotation Yrotation Zrotation
										JOINT LeftHandRing3
										{
											OFFSET 3.295807 0.000000 0.000000
											CHANNELS 3 Xrotation Yrotation Zrotation
											End Site
											{
												OFFSET -1.281006 3.013344 0.375733
											}
										}
									}
								}
								JOINT LeftHandPinky1
								{
									OFFSET 10.518692 -0.960396 -5.730441
									CHANNELS 3 Xrotation Yrotation Zrotation
									JOINT LeftHandPinky2
									{
										OFFSET 2.861649 0.000000 0.000000
										CHANNELS 3 Xrotation Yrotation Zrotation
										JOINT LeftHandPinky3
										{
											OFFSET 2.863380 0.000000 0.000000
											CHANNELS 3 Xrotation Yrotation Zrotation
											End Site
											{
												OFFSET -0.843597 2.711159 0.369971
											}
										}
									}
								}
							}
							JOINT LSleeve
							{
								OFFSET 6.676277 -0.344902 -1.011730
								CHANNELS 3 Xrotation Yrotation Zrotation
								End Site
								{
									OFFSET 0.000000 14.885353 0.000000
								}
							}
						}
					}
				}
				JOINT RightShoulder
				{
					OFFSET -6.197800 13.665199 -4.064700
					CHANNELS 3 Xrotation Yrotation Zrotation
					JOINT RightArm
					{
						OFFSET -7.778100 -0.187103 -1.709300
						CHANNELS 3 Xrotation Yrotation Zrotation
						JOINT RightForeArm
						{
							OFFSET -22.049376 0.000000 0.000000
							CHANNELS 3 Xrotation Yrotation Zrotation
							JOINT RightHand
							{
								OFFSET -23.009392 0.000000 0.000000
								CHANNELS 3 Xrotation Yrotation Zrotation
								JOINT RightHandThumb1
								{
									OFFSET -3.507191 -2.063065 3.133727
									CHANNELS 3 Xrotation Yrotation Zrotation
									JOINT RightHandThumb2
									{
										OFFSET -3.101337 -1.790558 1.790558
										CHANNELS 3 Xrotation Yrotation Zrotation
										JOINT RightHandThumb3
										{
											OFFSET -3.058640 -1.765907 1.765906
											CHANNELS 3 Xrotation Yrotation Zrotation
											End Site
											{
												OFFSET 0.415260 3.926476 -0.049563
											}
										}
									}
								}
								JOINT RightHandIndex1
								{
									OFFSET -11.334419 -0.901459 3.706815
									CHANNELS 3 Xrotation Yrotation Zrotation
									JOINT RightHandIndex2
									{
										OFFSET -3.283112 0.000000 0.000000
										CHANNELS 3 Xrotation Yrotation Zrotation
										JOINT RightHandIndex3
										{
											OFFSET -3.323853 0.000000 0.000000
											CHANNELS 3 Xrotation Yrotation Zrotation
											End Site
											{
												OFFSET 1.135597 3.097809 0.402452
											}
										}
									}
								}
								JOINT RightHandMiddle1
								{
									OFFSET -11.335861 0.000000 0.000000
									CHANNELS 3 Xrotation Yrotation Zrotation
									JOINT RightHandMiddle2
									{
										OFFSET -3.410492 0.000000 0.000000
										CHANNELS 3 Xrotation Yrotation Zrotation
										JOINT RightHandMiddle3
										{
											OFFSET -3.312172 0.000000 0.000000
											CHANNELS 3 Xrotation Yrotation Zrotation
											End Site
											{
												OFFSET 1.150200 3.080154 0.400270
											}
										}
									}
								}
								JOINT RightHandRing1
								{
									OFFSET -11.514786 -0.013176 -3.003090
									CHANNELS 3 Xrotation Yrotation Zrotation
									JOINT RightHandRing2
									{
										OFFSET -3.053307 0.000000 0.000000
										CHANNELS 3 Xrotation Yrotation Zrotation
										JOINT RightHandRing3
										{
											OFFSET -3.295807 0.000000 0.000000
											CHANNELS 3 Xrotation Yrotation Zrotation
											End Site
											{
												OFFSET 1.281006 3.013344 0.375733
											}
										}
									}
								}
								JOINT RightHandPinky1
								{
									OFFSET -10.518692 -0.960396 -5.730441
									CHANNELS 3 Xrotation Yrotation Zrotation
									JOINT RightHandPinky2
									{
										OFFSET -2.861649 0.000000 0.000000
										CHANNELS 3 Xrotation Yrotation Zrotation
										JOINT RightHandPinky3
										{
											OFFSET -2.863380 0.000000 0.000000
											CHANNELS 3 Xrotation Yrotation Zrotation
											End Site
											{
												OFFSET 0.843597 2.711159 0.369971
											}
										}
									}
								}
							}
							JOINT RSleeve
							{
								OFFSET -6.676277 -0.344902 -1.011730
								CHANNELS 3 Xrotation Yrotation Zrotation
								End Site
								{
									OFFSET 0.000000 14.885353 0.000000
								}
							}
						}
					}
				}
				JOINT Backpack
				{
					OFFSET 0.000000 -2.471497 36.677502
					CHANNELS 3 Xrotation Yrotation Zrotation
					End Site
					{
						OFFSET 0.000000 20.427315 0.000000
					}
				}
				JOINT Hood
				{
					OFFSET 0.000000 18.754097 -10.431000
					CHANNELS 3 Xrotation Yrotation Zrotation
					JOINT Hood1
					{
						OFFSET 0.000000 -5.011002 -7.685901
						CHANNELS 3 Xrotation Yrotation Zrotation
						End Site
						{
							OFFSET 0.000000 9.175140 0.000000
						}
					}
				}
				JOINT LHoodieString
				{
					OFFSET 5.250500 16.397697 3.089900
					CHANNELS 3 Xrotation Yrotation Zrotation
					JOINT LHoodieString1
					{
						OFFSET 0.257700 -6.364304 3.694600
						CHANNELS 3 Xrotation Yrotation Zrotation
						JOINT LHoodieString2
						{
							OFFSET 0.000000 -9.643799 2.679100
							CHANNELS 3 Xrotation Yrotation Zrotation
							End Site
							{
								OFFSET 0.000000 10.009018 0.000000
							}
						}
					}
				}
				JOINT RHoodieString
				{
					OFFSET -5.250500 16.397697 3.089900
					CHANNELS 3 Xrotation Yrotation Zrotation
					JOINT RHoodieString1
					{
						OFFSET -0.257700 -6.364304 3.694600
						CHANNELS 3 Xrotation Yrotation Zrotation
						JOINT RHoodieString2
						{
							OFFSET 0.000000 -9.643799 2.679100
							CHANNELS 3 Xrotation Yrotation Zrotation
							End Site
							{
								OFFSET 0.000000 10.009018 0.000000
							}
						}
					}
				}
			}
			JOINT LBackpack_Strap
			{
				OFFSET 15.223200 -7.719803 -6.610900
				CHANNELS 3 Xrotation Yrotation Zrotation
				End Site
				{
					OFFSET 0.000000 16.040596 0.000000
				}
			}
			JOINT RBackpack_Strap
			{
				OFFSET -15.223000 -7.719803 -6.610900
				CHANNELS 3 Xrotation Yrotation Zrotation
				End Site
				{
					OFFSET 0.000000 16.040596 0.000000
				}
			}
		}
	}
	JOINT BoyFacialAnim_Joint
	{
		OFFSET 1.000000 -82.208099 -1.550900
		CHANNELS 3 Xrotation Yrotation Zrotation
		End Site
		{
			OFFSET 0.000000 30.012791 0.000000
		}
	}
}
MOTION
Frames: 4
Frame Time: 0.033333
80.635780 142.264023 34.641819 15.527400 176.841821 2.333593 0.000003 -0.000000 -0.000000 -40.985708 33.438048 9.516661 49.453674 -0.483758 -1.750928 -8.500223 -12.052665 -0.939411 -0.000001 0.000001 -0.000000 -0.000001 0.000001 0.000000 -0.000000 -0.000003 0.000002 -61.992655 -9.395765 -28.777008 99.076204 2.065829 2.926718 0.885701 8.757875 13.793664 -0.000001 0.000001 -0.000001 -0.000001 0.000001 -0.000001 -0.000001 0.000001 0.000000 4.293383 0.764620 -0.918224 8.532502 2.198884 0.964196 8.532505 2.198885 0.964195 -1.524218 -3.463462 1.779970 -34.187614 -10.717764 -12.030426 0.000000 0.000001 0.000001 0.000000 0.000001 0.000001 0.000000 0.000001 0.000001 0.294554 -0.132766 8.441330 -74.729072 -43.343394 -62.855034 7.316414 -61.474537 2.597612 14.009916 12.974134 -4.955968 35.870262 -9.513057 -9.069747 -5.133006 10.766308 5.137317 0.000000 0.000001 -0.000002 -4.944071 5.361219 -36.257304 0.593478 0.850684 -62.789533 0.000002 0.000000 -0.000002 -2.875207 -0.675398 -45.453096 -2.952900 -4.344921 -68.201003 -0.000008 -0.000001 0.000002 -2.675094 -0.597097 -48.302674 -3.583717 -4.697163 -74.796261 -0.000001 -0.000001 -0.000001 2.309512 8.920354 -33.222983 -2.173507 -4.946522 -47.541972 -0.000001 0.000001 -0.000004 -0.000000 0.000001 0.000001 -0.977144 17.782529 13.969194 -39.723318 20.656222 52.670898 -53.118333 87.460217 51.745831 71.559509 -10.177055 29.474565 39.817455 13.648574 -17.067840 -4.138480 -8.434545 16.162263 -0.000001 0.000003 0.000001 -7.456935 -2.171625 13.709052 1.348883 -1.979209 65.394615 -0.000003 -0.000001 -0.000000 -1.493993 -2.594357 22.473395 -2.712182 3.443479 76.234508 -0.000002 0.000001 -0.000000 0.181403 0.915639 19.047191 -4.091638 5.757828 68.897669 0.000001 0.000000 0.000002 -2.820654 8.646687 14.005383 -6.841691 9.362826 72.160505 -0.000004 -0.000002 0.000002 -0.000001 -0.000003 -0.000000 0.000000 -0.000000 -0.000000 0.000000 -0.000000 -0.000000 0.000000 -0.000000 -0.000000 0.000000 -0.000000 -0.000000 0.000000 -0.000000 -0.000000 -0.000000 0.000000 0.000000 0.000000 -0.000000 -0.000000 0.000000 -0.000000 -0.000000 -0.000000 0.000000 0.000000 0.000000 0.000000 0.000000 0.000000 0.000000 0.000000 0.000003 -0.000000 -0.000000 
80.787247 142.512909 34.290928 16.838585 175.195349 2.323564 -0.000002 -0.000000 -0.000000 -39.290072 32.820654 11.462875 49.408079 -0.517542 -1.731538 -10.990959 -15.511809 -6.769780 -0.000000 0.000000 -0.000000 -0.000000 0.000000 0.000000 -0.000001 0.000003 -0.000002 -68.948246 -6.652368 -33.457289 105.087112 7.068264 3.360287 -7.850879 13.910530 20.022669 -0.000001 -0.000002 -0.000001 -0.000001 -0.000002 -0.000001 -0.000000 -0.000001 0.000002 4.327059 0.722948 -0.950463 8.595061 2.259249 1.119191 8.595061 2.259251 1.119190 -0.800758 -3.049342 1.037711 -33.690280 -8.871953 -11.059334 0.000001 0.000001 0.000000 0.000001 0.000001 0.000000 0.000001 0.000001 0.000000 0.199668 0.958798 8.264243 -76.521020 -36.507505 -70.395365 10.521636 -59.644531 7.184097 21.080735 9.769433 -9.198042 35.193905 -11.191730 -9.809708 -2.664621 17.071631 5.484007 0.000001 -0.000001 0.000004 -4.586600 5.671934 -39.493253 0.590173 0.849362 -62.574969 0.000001 -0.000000 -0.000002 -2.858452 -0.502415 -47.582445 -2.942697 -4.340845 -68.066284 0.000004 -0.000004 0.000001 -2.512960 -0.350598 -49.671233 -3.592668 -4.699602 -74.905612 -0.000002 -0.000002 -0.000001 2.774044 8.330771 -33.033961 -1.706525 -4.695766 -47.525515 -0.000002 -0.000000 -0.000002 -0.000001 0.000005 0.000003 -1.073008 16.962768 14.503068 -37.622721 25.314669 51.762763 -38.851912 85.086624 37.176207 70.086565 -12.152666 28.214169 40.308505 11.290922 -18.236322 -3.353981 -9.694023 15.458251 -0.000003 0.000004 0.000001 -7.426821 -2.422216 10.310233 1.349762 -2.596822 39.085296 -0.000000 0.000002 0.000002 -1.179544 -2.493172 18.895114 -0.979965 2.374137 47.235235 0.000002 0.000003 -0.000003 0.324030 0.429061 14.645561 -1.520962 4.012145 37.670160 -0.000000 0.000000 0.000004 1.555884 6.166319 4.757276 -4.154854 8.705145 42.930413 -0.000000 -0.000002 0.000002 -0.000001 0.000001 0.000002 -0.000000 0.000000 -0.000000 -0.000000 0.000000 -0.000000 -0.000000 0.000000 -0.000000 -0.000000 0.000000 -0.000000 -0.000000 0.000000 -0.000001 -0.000000 0.000000 -0.000000 -0.000000 0.000000 -0.000000 -0.000000 0.000000 -0.000001 -0.000000 0.000000 -0.000000 0.000000 -0.000000 -0.000000 0.000000 -0.000000 -0.000000 -0.000002 -0.000000 -0.000000 
80.958435 143.717422 33.856815 18.330063 173.681657 2.378877 -0.000000 0.000001 0.000000 -34.531363 32.148618 11.190267 45.938551 -0.452950 -1.591663 -13.459712 -17.692435 -11.905250 0.000002 0.000001 -0.000003 0.000002 0.000001 -0.000002 -0.000000 0.000003 0.000001 -73.264161 -5.035591 -36.814563 105.966198 11.212927 3.709352 -14.793749 16.969958 25.662665 -0.000000 -0.000001 0.000001 -0.000000 -0.000001 0.000001 0.000000 -0.000000 -0.000001 4.314569 0.574567 -1.041750 8.576971 2.056748 1.044309 8.576969 2.056747 1.044308 0.592621 -2.648479 0.372545 -33.196444 -6.939851 -10.284308 -0.000001 0.000000 0.000000 -0.000001 0.000000 0.000000 -0.000001 0.000000 0.000000 0.288971 -0.070212 8.309151 -73.233889 -29.275649 -73.374222 12.647118 -60.422497 10.923667 28.531370 7.311835 -12.525327 34.460015 -12.316532 -10.390464 -0.145440 23.497022 5.538157 0.000001 -0.000000 0.000001 -4.245436 5.976946 -40.830622 0.597158 0.852117 -63.027688 -0.000003 0.000001 0.000000 -2.860017 -0.453181 -48.376686 -2.956950 -4.346527 -68.254429 0.000002 0.000000 -0.000003 -2.463781 -0.275713 -50.368776 -3.614550 -4.705414 -75.172338 -0.000000 -0.000000 -0.000002 2.837620 8.068934 -32.953767 -1.586272 -4.638250 -47.521881 -0.000001 0.000001 0.000002 -0.000001 0.000004 -0.000002 -1.144649 15.061846 14.861802 -32.367058 30.206542 51.380060 -64.880834 84.712931 63.456091 64.993505 -17.692227 27.648261 40.720693 8.754233 -19.309466 -2.406806 -11.308176 14.801939 0.000001 0.000003 -0.000001 -7.441743 -2.710977 9.377077 1.304665 -2.974347 17.435321 -0.000001 -0.000002 0.000002 -0.973416 -2.172918 17.275083 -0.020449 0.963628 23.347846 0.000001 0.000001 0.000002 0.406681 0.132358 11.311812 -0.431970 1.655030 11.716187 0.000001 -0.000001 0.000002 5.447249 3.016437 -3.391819 -2.720228 7.318037 18.587262 0.000001 0.000003 -0.000003 0.000000 -0.000002 0.000004 0.000000 -0.000000 -0.000000 0.000000 -0.000000 -0.000000 0.000000 -0.000000 -0.000000 0.000000 -0.000000 -0.000000 0.000000 -0.000000 -0.000000 0.000000 0.000000 0.000000 0.000000 -0.000000 -0.000000 0.000000 -0.000000 -0.000000 0.000000 0.000000 0.000000 -0.000000 -0.000000 0.000000 -0.000000 -0.000000 0.000000 -0.000000 0.000001 0.000000 
81.114311 146.206436 33.582954 19.205263 171.520107 2.095388 0.000000 0.000001 -0.000000 -28.311250 32.682100 9.644977 38.068841 -0.255205 -1.301572 -10.317789 -17.902071 -13.380870 0.000001 -0.000000 0.000001 0.000001 -0.000000 0.000001 -0.000000 -0.000001 0.000001 -74.131663 -6.411371 -37.641377 101.546594 12.506257 3.784372 -17.357556 18.226582 28.489889 -0.000001 0.000001 -0.000003 -0.000001 0.000001 -0.000003 0.000001 -0.000000 -0.000002 4.218501 0.498688 -1.152698 8.392379 1.924571 0.760378 8.392379 1.924571 0.760378 1.877332 -2.118925 0.379428 -32.520300 -4.377682 -9.080752 -0.000000 -0.000000 0.000000 -0.000000 -0.000000 0.000000 -0.000000 -0.000000 0.000000 0.424419 -1.705052 7.778832 -66.814379 -23.875671 -73.660858 14.965438 -63.930700 14.635191 35.258232 6.216731 -14.235083 33.732344 -13.014144 -10.829989 2.037456 28.825758 5.087924 0.000002 -0.000001 0.000003 -4.115794 6.074334 -41.571786 0.607255 0.856033 -63.679684 -0.000003 0.000000 -0.000003 -2.855687 -0.411188 -48.989867 -2.972422 -4.352670 -68.458317 0.000005 -0.000001 -0.000002 -2.422886 -0.214570 -51.027254 -3.631431 -4.709811 -75.378050 -0.000002 -0.000001 -0.000002 2.893899 7.805896 -32.872492 -1.723528 -4.704139 -47.526027 -0.000002 0.000000 -0.000002 -0.000002 0.000002 0.000001 -1.222641 14.061103 15.403835 -25.929031 33.026874 50.905455 -121.686691 84.039925 121.143281 57.601027 -22.629272 26.362386 40.531685 5.759137 -21.269580 -1.385251 -13.045408 14.184240 0.000000 0.000001 0.000003 -7.474603 -3.048754 12.804821 1.300139 -2.434369 13.436145 0.000000 -0.000000 0.000000 -1.039790 -1.602198 19.217717 0.116306 0.759267 18.404740 -0.000000 0.000002 0.000000 0.433496 0.265319 10.797980 -0.407318 0.931290 5.680467 0.000000 0.000001 0.000000 7.826622 0.177644 -7.450338 -2.495591 6.855135 12.710503 -0.000001 -0.000000 0.000002 -0.000002 0.000000 -0.000001 0.000000 0.000000 -0.000000 0.000000 0.000000 -0.000000 0.000000 0.000000 -0.000000 0.000000 0.000000 -0.000000 0.000000 0.000000 -0.000000 0.000000 0.000000 -0.000000 0.000000 0.000000 -0.000000 0.000000 0.000000 -0.000000 0.000000 0.000000 -0.000000 -0.000000 0.000000 -0.000000 -0.000000 0.000000 -0.000000 0.000000 0.000001 -0.000000 
